[img]http://img9.imageshack.us/img9/3148/posterbk.jpg[/img]

[code]
Soul Surfer 2011 CAM XVID StoNerS

Format                           : AVI
Format/Info                      : Audio Video Interleave
File size                        : 1.09 GiB
Duration                         : 1h 42mn
Overall bit rate                 : 1 527 Kbps
Movie name                       : Soul Surfer 2011 CAM XVID StoNerS
Encoder                         : Nichy
Writing library                  : TMPGEnc 4.0 XPress Version. 4.7.4.299
Comment                          : StoNerS FTW!!

Video
ID                               : 0
Format                           : MPEG-4 Visual
Format profile                   : Advanced Simple@L5
Format settings, BVOP            : 2
Format settings, QPel            : No
Format settings, GMC             : No warppoints
Format settings, Matrix          : Default (H.263)
Muxing mode                      : Packed bitstream
Codec ID                         : XVID
Codec ID/Hint                    : XviD
Duration                         : 1h 42mn
Bit rate                         : 1 387 Kbps
Width                            : 720 pixels
Height                           : 320 pixels
Display aspect ratio             : 2.25:1
Frame rate                       : 23.976 fps
Color space                      : YUV
Chroma subsampling               : 4:2:0
Bit depth                        : 8 bits
Scan type                        : Progressive
Compression mode                 : Lossy
Bits/(Pixel*Frame)               : 0.251
Stream size                      : 1 017 MiB (91%)
Writing library                  : XviD 63

Audio
ID                               : 1
Format                           : MPEG Audio
Format version                   : Version 1
Format profile                   : Layer 3
Mode                             : Joint stereo
Codec ID                         : 55
Codec ID/Hint                    : MP3
Duration                         : 1h 42mn
Bit rate mode                    : Constant
Bit rate                         : 128 Kbps
Channel(s)                       : 2 channels
Sampling rate                    : 48.0 KHz
Compression mode                 : Lossy
Stream size                      : 93.8 MiB (8%)
Alignment                        : Aligned on interleaves
Interleave, duration             : 42 ms (1.00 video frame)
Interleave, preload duration     : 408 ms

plot:
A teenage surfer girl summons the courage to go back into the ocean after losing an arm in a shark attack.
 
http://www.imdb.com/title/tt1596346/

Director:
Sean McNamara

Writers:
Sean McNamara (screenplay), Deborah Schwartz (screenplay), and 12 more credits Â»

Stars:
AnnaSophia Robb, Dennis Quaid and Helen Hunt
[/code]
Screens:
[img]http://img860.imageshack.us/img860/263/12875318.jpg[/img]